<svg id="Layer_1" data-name="Layer 1" xmlns="http://www.w3.org/2000/svg" viewBox="0 0 594 685.98"><defs><style>.cls-1,.cls-4{fill:#0e0333;}.cls-2{fill:#b058bf;}.cls-3{fill:#6e3ff6;}.cls-4{stroke:#0fce7c;stroke-miterlimit:10;stroke-width:3px;}.cls-5{fill:#686565;}.cls-6{fill:none;}.cls-7{fill:#6e3ff5;}.cls-8{fill:#dd1b1b;}.cls-9{fill:#00ebae;}.cls-10{fill:#572fcd;}.cls-11{fill:#fd578b;}.cls-12{fill:#5730c2;}</style></defs><polygon class="cls-1" points="530.64 477.59 530.64 208.1 297.26 73.36 63.88 208.1 63.88 477.59 297.26 612.33 530.64 477.59"/><path class="cls-2" d="M304.71,7.38,7.71,178.87v343l297,171.49,297-171.49v-343ZM550.56,492.27,304.83,634.18,59,492.27V208.52l245.81-142,245.73,142Z" transform="translate(-7.71 -7.38)"/><path class="cls-3" d="M304.75,66.55,59,208.48v283.8l245.8,141.91L550.48,492.28V208.48ZM538.11,485.16,304.75,619.89,71.35,485.16V215.66L304.75,80.89,538.11,215.66Z" transform="translate(-7.71 -7.38)"/><path class="cls-1" d="M526.05,547.46l-22-6.41,7.62,13.2-2.83,1.64-11.62-20.13,22.16,6.48-7.6-13.16,2.78-1.61Z" transform="translate(-7.71 -7.38)"/><path class="cls-1" d="M389.62,604.14l-.86,3c-.81-.2-1.55-.43-2.31-.57a8,8,0,0,0-8.9,10.59A8.22,8.22,0,0,0,389.09,622c3.27-1.57,4.42-6.07,3-8.22l-4.57,2.65L386,613.72l3.85-2.22,3.8-2.19a10.07,10.07,0,0,1-2.59,15.1,11.29,11.29,0,0,1-13-.92,11.59,11.59,0,0,1-3.4-12.89A11.35,11.35,0,0,1,389.62,604.14Z" transform="translate(-7.71 -7.38)"/><path class="cls-1" d="M453.12,582.35a24.35,24.35,0,0,0,1.41,2.41c.56.72.37,1.23-.11,1.88-4.23,5.67-12,6.57-17,1.94a11.48,11.48,0,0,1,7.05-19.88,1.21,1.21,0,0,1,1.35.75c.4.79.88,1.55,1.45,2.53-3.28-.39-6.12.12-8.32,2.53a7.74,7.74,0,0,0-2,4.9,8.51,8.51,0,0,0,6,8.61C447.07,589.22,450.2,587.5,453.12,582.35Z" transform="translate(-7.71 -7.38)"/><path class="cls-1" d="M419.42,585.81l9.37,16.24L426,603.68l-9.36-16.21L412.28,590l-1.49-2.58,11.48-6.63,1.47,2.56Z" transform="translate(-7.71 -7.38)"/><path class="cls-1" d="M398.79,594.25l2.68-1.55,10.9,18.87-2.69,1.55Z" transform="translate(-7.71 -7.38)"/><path class="cls-1" d="M497.54,562.43,494.87,564,484,545.1l2.68-1.55Z" transform="translate(-7.71 -7.38)"/><circle class="cls-4" cx="460.59" cy="556.51" r="11.45"/><path class="cls-5" d="M265.85,529.52c0,13.07,30.72,22.38,68.61,22.38s68.62-9.31,68.62-22.38-30.72-23.65-68.62-23.65S265.85,516.46,265.85,529.52Z" transform="translate(-7.71 -7.38)"/><path class="cls-6" d="M242.59,172a55.86,55.86,0,0,0-8,2.56c1.44,1.16,2.63,2.07,3.78,3.05.56.48,1,1.45,1.59,1.56,1.68.3,3.82,1,5,.15.91-.65,1.09-3.42.74-5C245.43,173.22,243.53,171.78,242.59,172Z" transform="translate(-7.71 -7.38)"/><path class="cls-6" d="M209.05,189.88c-1.76-1.54-3.61-1.57-5.54,0,3.34,1,3.91,2.81,2.12,6.86,2.13.46,3.76-.05,4.59-2.12A4,4,0,0,0,209.05,189.88Z" transform="translate(-7.71 -7.38)"/><path class="cls-6" d="M305.81,289.91a7,7,0,0,0,1.41,2.43Z" transform="translate(-7.71 -7.38)"/><polyline class="cls-7" points="303.49 392.18 300.69 382.47 325.06 386.33 327.29 394.92"/><polygon class="cls-7" points="334.96 413.76 336.72 410.71 336.72 386.47 327.29 383.52 322.28 385.89 330.4 413.76 334.96 413.76"/><path class="cls-6" d="M242.59,172a55.86,55.86,0,0,0-8,2.56c1.44,1.16,2.63,2.07,3.78,3.05.56.48,1,1.45,1.59,1.56,1.68.3,3.82,1,5,.15.91-.65,1.09-3.42.74-5C245.43,173.22,243.53,171.78,242.59,172Z" transform="translate(-7.71 -7.38)"/><path class="cls-6" d="M209.05,189.88c-1.76-1.54-3.61-1.57-5.54,0,3.34,1,3.91,2.81,2.12,6.86,2.13.46,3.76-.05,4.59-2.12A4,4,0,0,0,209.05,189.88Z" transform="translate(-7.71 -7.38)"/><path class="cls-8" d="M124.75,319.42c-.42.16-.81.4-1.42.71,2.87.72,4.38,1.19,5,2.29L129,317A15.26,15.26,0,0,1,124.75,319.42Z" transform="translate(-7.71 -7.38)"/><path class="cls-8" d="M299,500.11a24,24,0,0,1-5.43,1.73c-.39,2.41-.54,4.53-1,6.49l7.6-8.89C299.73,499.67,299.35,499.9,299,500.11Z" transform="translate(-7.71 -7.38)"/><path class="cls-8" d="M189.71,394.93v5c1.25-1,2.23-2.16,3.32-2l-3.33-3.33C189.7,394.71,189.71,394.82,189.71,394.93Z" transform="translate(-7.71 -7.38)"/><path class="cls-6" d="M209.05,189.88c-1.76-1.54-3.61-1.57-5.54,0,3.34,1,3.91,2.81,2.12,6.86,2.13.46,3.76-.05,4.59-2.12A4,4,0,0,0,209.05,189.88Z" transform="translate(-7.71 -7.38)"/><path class="cls-6" d="M242.59,172a55.86,55.86,0,0,0-8,2.56c1.44,1.16,2.63,2.07,3.78,3.05.56.48,1,1.45,1.59,1.56,1.68.3,3.82,1,5,.15.91-.65,1.09-3.42.74-5C245.43,173.22,243.53,171.78,242.59,172Z" transform="translate(-7.71 -7.38)"/><path class="cls-6" d="M242.59,172a55.86,55.86,0,0,0-8,2.56c1.44,1.16,2.63,2.07,3.78,3.05.56.48,1,1.45,1.59,1.56,1.68.3,3.82,1,5,.15.91-.65,1.09-3.42.74-5C245.43,173.22,243.53,171.78,242.59,172Z" transform="translate(-7.71 -7.38)"/><path class="cls-6" d="M209.05,189.88c-1.76-1.54-3.61-1.57-5.54,0,3.34,1,3.91,2.81,2.12,6.86,2.13.46,3.76-.05,4.59-2.12A4,4,0,0,0,209.05,189.88Z" transform="translate(-7.71 -7.38)"/><path class="cls-9" d="M191,395.72c1.83,2,3.74,3.91,5.4,6,2.08,2.69,3.23,2.86,4.89-.21a44.13,44.13,0,0,0,5.34-16.88c.49-5.18-1.42-9.15-5.32-12.46-1.7,3.56-3.38,6.87-4.87,10.28a3.26,3.26,0,0,1-1,1.43L190.06,395A2.67,2.67,0,0,1,191,395.72Z" transform="translate(-7.71 -7.38)"/><path class="cls-8" d="M366.21,517.34a23.75,23.75,0,0,1-5,2.7c.06,2.44.3,4.56.18,6.57l5.64-9.78-.11-.08Z" transform="translate(-7.71 -7.38)"/><path class="cls-9" d="M127.86,322.91c.66,1.11.45,2.86-.09,6.15a33.07,33.07,0,0,0-.52,4.19c-.11,3.11.35,3.9,3.08,3.5a70.7,70.7,0,0,0,13.2-2.83c5.79-2,8-6.56,7.18-13.74H128.17Z" transform="translate(-7.71 -7.38)"/><path class="cls-9" d="M292.39,508.84c-.06.24-.13.49-.2.72-.87,2.84-2.15,5.51-3.25,8.26-.82,2-.13,3,1.8,3.56a33.53,33.53,0,0,0,18-.21c4.26-1.14,7.6-5.93,8.06-10.91l-1.22-.24L294,507Z" transform="translate(-7.71 -7.38)"/><path class="cls-9" d="M361.13,528.34c-1.24,2.76-3,5.33-4.25,8.15,1.23.46,2.26.91,3.33,1.24a37.46,37.46,0,0,0,16.53,1.2c5.89-.8,10.13-5,11.36-11.81l-23.72-4.41Z" transform="translate(-7.71 -7.38)"/><path class="cls-6" d="M209.05,189.88c-1.76-1.54-3.61-1.57-5.54,0,3.34,1,3.91,2.81,2.12,6.86,2.13.46,3.76-.05,4.59-2.12A4,4,0,0,0,209.05,189.88Z" transform="translate(-7.71 -7.38)"/><path class="cls-6" d="M416.44,371.83a12.79,12.79,0,0,0-.42-2.07l-.16.11C416.08,370.53,416.27,371.18,416.44,371.83Z" transform="translate(-7.71 -7.38)"/><path class="cls-6" d="M403.88,346.92a19.16,19.16,0,0,0-5.11-4.24l1.12.95C401.2,344.73,402.52,345.88,403.88,346.92Z" transform="translate(-7.71 -7.38)"/><path class="cls-6" d="M242.59,172a55.86,55.86,0,0,0-8,2.56c1.44,1.16,2.63,2.07,3.78,3.05.56.48,1,1.45,1.59,1.56,1.68.3,3.82,1,5,.15.91-.65,1.09-3.42.74-5C245.43,173.22,243.53,171.78,242.59,172Z" transform="translate(-7.71 -7.38)"/><polygon class="cls-10" points="430.37 357.33 415.69 369.03 401 357.33 415.69 345.63 430.37 357.33"/><polygon class="cls-9" points="451.18 357.33 440.73 365.65 430.28 357.33 440.73 349 451.18 357.33"/><polygon class="cls-11" points="467.4 357.33 458.92 364.09 450.43 357.33 458.92 350.57 467.4 357.33"/><path class="cls-9" d="M322,189.68,332.31,185c-5.36-4.06-11.67-2.21-17.23-4.16l-18.71,1.59a69,69,0,0,1,4.81,9.06L322,189.77Z" transform="translate(-7.71 -7.38)"/><path class="cls-9" d="M305,244.41l16.44,1.67L333.25,244c.05-.28.11-.56.16-.85-1.83-.72-3.65-1.5-5.51-2.16s-4-.85-5.53-3.45l-16.09-1.64C305.92,238.74,305.51,241.58,305,244.41Z" transform="translate(-7.71 -7.38)"/><path class="cls-11" d="M303,255.17l13.6,3.12-.15-.21a13.49,13.49,0,0,1,3.27.37c1.89.3,3.95,1.16,5.66.65,4.85-1.45,9.74-1.23,14.65-1.34,1.09,0,2.19-.19,3.28-.28l.28-.73a14.56,14.56,0,0,0-2-1.61A44.65,44.65,0,0,0,325.9,250a5.71,5.71,0,0,1-4.73-3.85l.31-.06L305,244.41Q304.14,249.83,303,255.17Z" transform="translate(-7.71 -7.38)"/><path class="cls-11" d="M298,276.32l7.76,13.39a7.16,7.16,0,0,1,.78-5.62,13.83,13.83,0,0,1,7.41-6.85c2-.76,4-1.56,6.2-2.4-2.78-3.78-7.71-3-10-7.18l-8.63-5.58C300.4,266.84,299.22,271.58,298,276.32Z" transform="translate(-7.71 -7.38)"/><path class="cls-11" d="M306.65,232.66c-.11,1.08-.24,2.15-.37,3.21l16.09,1.64a.47.47,0,0,0-.05-.1c1.85,0,3.26,0,4.67,0,2.4.05,5.21,1,7.11,0a17.11,17.11,0,0,1,14-1.28,4.21,4.21,0,0,0,2.62-.15,23.3,23.3,0,0,0,3.49-2.11c-5.75-2.73-10.63-5.19-16.3-5.43-3.31-.14-6.6-1.29-9.85-2.19a7.15,7.15,0,0,1-2.28-1.59l-18.65,1.58C307,228.36,306.89,230.49,306.65,232.66Z" transform="translate(-7.71 -7.38)"/><path class="cls-9" d="M301.49,262.08l8.63,5.58s-.05-.09-.07-.14c8,4.54,16.23.64,24.31,1.64-2.63-3.22-5.31-5.81-9.39-6a10.72,10.72,0,0,1-8.36-4.83L303,255.17Q302.29,258.64,301.49,262.08Z" transform="translate(-7.71 -7.38)"/><path class="cls-9" d="M329.27,223.89c3.27-.36,6.63-.38,9.75-1.33a31.51,31.51,0,0,1,11.18-1.74,14,14,0,0,0,4.09-.18,24.48,24.48,0,0,0,4-1.77c-1.75-1.33-3.42-1.76-4.86-2.66a14.18,14.18,0,0,0-10.23-2c-5.63.9-10.92-.05-15.38-4.5l.52-.65-21.83,1.85a87.2,87.2,0,0,1,.61,15.37l18.65-1.58-.33-.26A14.16,14.16,0,0,1,329.27,223.89Z" transform="translate(-7.71 -7.38)"/><path class="cls-11" d="M292.6,154.92l7.09-4.13c-5.62-.57-10.55-1.13-15.5-1.51a2.32,2.32,0,0,0-1.87,1.35c-.32,1.5-.62,3-.9,4.52l11.22.14Z" transform="translate(-7.71 -7.38)"/><path class="cls-11" d="M314.54,180.68a33,33,0,0,1,4.5-1.19,34.47,34.47,0,0,0,7.09-2.26c3-1.59,5.94-3,9.44-2.58a7.34,7.34,0,0,0,3.78-.68c.94-.43,1.65-1.48,2.66-2.44-7-1.73-13.39-3.93-19.89-4.71s-13.21-.18-19.83-.18l.13-.14-18,1.52a76.34,76.34,0,0,1,11.94,14.45l18.71-1.59Z" transform="translate(-7.71 -7.38)"/><path class="cls-11" d="M330,207l-1.83-1.81c3.17-1.12,6.28-1.83,9.07-3.3A14.82,14.82,0,0,1,343.6,200a38,38,0,0,0,7.82-1.36c1.24-.32,2.59-1.15,2.29-2.68-3.1-1-6-1.87-8.73-3-3.9-1.52-7.77-.89-11.71-.3a17.63,17.63,0,0,1-11.06-2c-.06-.32-.13-.64-.19-.95l-20.84,1.76a71.38,71.38,0,0,1,5.34,19.36L328.35,209Z" transform="translate(-7.71 -7.38)"/><path class="cls-9" d="M315.87,157.86c-2.65-.47-5.15-1-7.65-1.35-3.4-.54-6.79-1.12-10.2-1.5a45.63,45.63,0,0,0-5.36,0l0-.17-11.22-.14c-.48,2.55-.91,5.11-1.27,7.68a3.75,3.75,0,0,0,1.05,2.76c1.11,1,2.18,1.93,3.23,2.92l18-1.52C306.26,162,313,163.57,315.87,157.86Z" transform="translate(-7.71 -7.38)"/><path class="cls-12" d="M399.89,343.63l-1.12-.95a7.12,7.12,0,0,0-6.53-.45,7.12,7.12,0,0,1,6.53.45c-5.42-4.59-10.71-9.37-16.26-13.74a21,21,0,0,0-7.28-3.19c-7.79-2.23-15.78-3.71-23.42-6.41-12.58-4.44-25.09-9.29-35.47-18.8-2.6-2.38-5.22-4.72-7.9-7a10.75,10.75,0,0,1-1.22-1.21v0a7,7,0,0,1-1.41-2.43l-7.76-13.38c-.22.85-4.92-3.3-3.58-7.39,1.66-5.05,2.76-10.33,4-15.53,3-12.51,5.41-25.05,4.12-38.16-2-20.52-10.37-36.83-26.11-48.44l-3.35-2.48c1.16-1.62,2.76-2.89,3.08-4.47,1.46-7.28,2.56-14.65,3.79-22l-.8-.24a27.81,27.81,0,0,0-1.21,3,24.27,24.27,0,0,1-10.34,14.44c-2.14,1.41-4.18,3-5,5.85-.14.5-.91.78-1.4,1.16a6.11,6.11,0,0,1-.53-2c.36-3.18,1.61-5.6,4.61-6.78a32.81,32.81,0,0,0,4.79-2.87c-.09-.31-.19-.62-.28-.94-3.28-.31-6.55-.73-9.83-.9-2.46-.13-4.11,1.37-5,3.83-.44,1.23-.58,2.6-1.1,3.77a4.57,4.57,0,0,1-1.75,2.16c-7.79,4.06-15.62,8-23.43,12-8.79,4.49-16.54,11.19-26.24,13.86-4.13,1.14-6.45,5.48-6.52,10.47,0,3.24.25,6.48.4,9.92a7.19,7.19,0,0,0,1.23.33c5,.5,10.1.93,15.14,1.5a7.45,7.45,0,0,1,2.31,1.21,8.35,8.35,0,0,1-1.74,1.85c-3.8,2.08-7.66,4-11.82,6.23,1.36,1.26,2.48,2.37,3.67,3.38,5.33,4.5,8.79,4.62,14.2.26,4.67-3.76,9.56-6.79,15.48-7.54,2.33-.3,4.17-.08,5.91,1.84,3.11,3.44,7,4,11.2,3.07,5.19-1.2,9.3-4.24,12.72-8.58a19,19,0,0,1,2.53-2.29l.53.59a29.4,29.4,0,0,1-1.31,2.71,25.65,25.65,0,0,1-16.72,12,9.3,9.3,0,0,0-4.35,2,121.63,121.63,0,0,0-22,29.41c-3.69,6.82-7.37,13.58-12.6,19.31-3.39,3.71-5.75,8.54-8.67,13-1.87-1.51-4.17-3.41-6.51-5.26-7.46-5.9-13.48-13.08-16.82-22.65a13.16,13.16,0,0,0-1.24-2.56c-1.84-3-3-3.44-6.28-2.71a31.82,31.82,0,0,1-4.55.68,7.57,7.57,0,0,0-6.86,5c-1.17,2.7-2.26,5.64-4.06,7.79-5.81,7-11.59,14-18,20.26-5.15,5-6.7,10.44-5.18,17.4,1.33,6.06-.18,11.16-4.1,14.44l-.31,2.73h22.54v0h-9.62c-.88-2-.3-2.84,1.18-3.24a41,41,0,0,0,4.63-1.51c.62-.25,1.49-.83,1.58-1.39.76-4.87,3.87-7.53,7.38-9.92a2,2,0,0,0,.71-1.65c-1.24-2.7-2.55-5.38-4-8a13,13,0,0,0-2.48-2.43c1.54-1.89,2.79-3.62,4.22-5.13,3.6-3.8,7.29-7.49,10.95-11.23,2-2,2.94-1.9,4.79.36,6.75,8.24,11.87,17.33,13.41,28.53.24,1.79,1.14,4.17,2.42,4.95,3.71,2.25,7.78,3.83,12.26,5.93-.25-4.25-.64-7.49-.58-10.73a13.92,13.92,0,0,1,3.27-9c-1.24,8.12.77,15.76,2.42,23.91-1.74.16-3.4.76-4.85.38-5.85-1.54-11.66-3.3-17.43-5.17-2.61-.84-5.05-2.36-7.67-3.16-2.84-.88-4.58,0-6.1,2.83-1,1.81-1.53,3.9-2.51,5.7-1.71,3.12-1.22,6.09-.38,9.39a131.23,131.23,0,0,1,3,16c.68,5.59.66,11.28,1.13,16.9.31,3.74.05,7.87,2.94,10.61a29.37,29.37,0,0,0,7,5c5.42,2.7,7.84,7.23,7.94,13.48l3.33,3.32.35.09,5.42-11.09c-.59.41-1.33.2-2.42-.74,1.33-3.83,2.68-7.73,4.09-11.77-2.72-.06-4.63-1.31-5-4.31a21,21,0,0,1,0-4.75c.23-2.34.64-4.65,1.08-7.71l-14-.84c-.29-6.65-.6-13.55-.94-21.17,3.09.73,5.73.79,7.86,2,6,3.29,11.8,6.85,17.49,10.66,6.42,4.3,13,8.24,20.26,10.47,5.43,1.66,7.3.84,10-4.61,2.19-4.48,2.77-9.36,3.08-14.32.05-.86.24-1.71.37-2.57l.8,0a9.15,9.15,0,0,1,.49,2.26c-.17,5.64-.19,11.29-.72,16.89-.27,2.76.48,4.26,2.52,5.55,6.48,4.11,12.8,8.55,19.39,12.43,7.3,4.3,14.62,8.65,22.75,10.94,2.42.68,4.79,1.55,7.2,2.26,6.21,1.83,12.36,4.06,18.67,5.32,9.19,1.83,18.49,3,27.76,4.35,2.29.33,3.77.91,4,4,.41,6.67.6,13.42,2.93,19.78.25.7-.19,1.7-.39,3.18a10.27,10.27,0,0,1-1.14-1.53c-2-5.26-4.32-10.43-6-15.84-.75-2.44-1.6-3.42-3.87-3.63-4.9-.45-9.78-1.16-14.66-1.79-2.05-.27-4.1-.6-6.46-1,2.28,7.92,4.61,15.43,9.54,21.5,4.12,5.08,8.53,9.88,12.69,14.93a7.62,7.62,0,0,1,1.89,4.11c.18,5.55.08,11.11,0,16.66a14,14,0,0,1-3,7.92c-2.28,3.21-4.3,6.62-6.41,10-3.06,4.81-6.31,9.42-10.85,12.69a41.59,41.59,0,0,0-9.7,10.21,15.39,15.39,0,0,1-4.74,4.06l-6,7,21.55,3.07-8.33-1.6c-.51-2.92.57-3.81,2.88-3.57a19.58,19.58,0,0,0,5.07.09,6,6,0,0,0,3.56-1.73,13.74,13.74,0,0,1,7.45-4.62c2.34-.65,4.75-1,7.07-1.7.67-.2,1.66-1.36,1.58-1.9A31.25,31.25,0,0,0,333,487.3c-.62-1.46-.94-2.39.05-3.75,2-2.75,3.86-5.65,5.82-8.45,3.29-4.68,7.05-8.59,12.25-10.84,2.79-1.21,5.3-3.34,7.75-5.32a6.44,6.44,0,0,0,2.32-6.72c-.8-4.29-1.25-8.65-1.88-13.22a5.45,5.45,0,0,1,1.3.34,25,25,0,0,1,2.24,1.57c6.29,5,12.77,9.57,20.27,12.15a5.12,5.12,0,0,1,2.22,1.48c3.62,4.39,7.25,8.78,10.67,13.36a5.43,5.43,0,0,1,.73,4.07c-3.19,10.92-7.49,21.21-14.92,29.62a57.41,57.41,0,0,0-5.3,7.21,18.39,18.39,0,0,1-8.08,7.31l-1.4.61-3.16,5.48,23.72,4.41s0,0,0-.07l-11.47-2.11c.38-2.7,1.7-3.65,3.92-3.42,1.28.13,2.61-.15,3.86.09,2.75.53,4.58-.64,6-3.11a13.67,13.67,0,0,1,10.65-6.92c1.12-.13,2.24-.35,3.36-.4,1.57-.08,2-1,2-2.58a9.86,9.86,0,0,0-3.17-7.17c-1.81-1.82-2-3.74-1.05-6.18,3.44-9,7-17.8,13-25.25a29.74,29.74,0,0,0,4.49-9.22c1.41-4.26.34-7.84-3.12-10.92a59.52,59.52,0,0,1-8-9.47c-2.63-3.57-4.65-7.7-7.47-11.05-1.84-2.18-1.86-3.64-.59-5.92,3.51-6.34,7.18-12.6,10.24-19.2,4.65-10,9.13-20.23,6.08-31.88.12,1.36-.38,1.55-1.66-.11,1.28,1.66,1.78,1.47,1.66.11-.17-.65-.36-1.3-.58-2l.16-.11c-1.43-5.35-6.26-16.29-12.14-22.84C402.52,345.88,401.2,344.73,399.89,343.63Zm-189.67-149c-.83,2.07-2.46,2.58-4.59,2.12,1.79-4.05,1.22-5.84-2.12-6.86,1.93-1.57,3.78-1.54,5.54,0A4,4,0,0,1,210.22,194.62Zm34.69-15.35c-1.17.82-3.31.15-5-.15-.59-.11-1-1.08-1.59-1.56-1.15-1-2.34-1.89-3.78-3.05a55.86,55.86,0,0,1,8-2.56c.94-.17,2.84,1.27,3.06,2.3C246,175.85,245.82,178.62,244.91,179.27Z" transform="translate(-7.71 -7.38)"/></svg>