<svg id="Layer_1" data-name="Layer 1" xmlns="http://www.w3.org/2000/svg" viewBox="0 0 594 685.98"><defs><style>.cls-1{fill:#d8baba;}.cls-12,.cls-2{fill:#73003e;}.cls-3{fill:#b28412;}.cls-4{fill:#80ba97;}.cls-5,.cls-9{fill:none;}.cls-6{fill:#606060;}.cls-7{fill:#999898;}.cls-8{fill:#a09d9d;}.cls-10,.cls-9{stroke:#7e7e7e;stroke-linecap:round;}.cls-12,.cls-9{stroke-miterlimit:10;}.cls-10{fill:#7e7e7e;stroke-linejoin:round;stroke-width:0.5px;}.cls-11{fill:#15003e;}.cls-12{stroke:#0fce7c;stroke-width:3px;}</style></defs><polygon class="cls-1" points="530.38 477.73 530.38 208.25 297 73.51 63.62 208.25 63.62 477.73 297 612.47 530.38 477.73"/><path class="cls-2" d="M316.29,20.56l-297,171.49v343l297,171.49,297-171.49v-343ZM562.13,505.45,316.4,647.36,70.59,505.45V221.7L316.4,79.7l245.73,142Z" transform="translate(-19.29 -20.56)"/><path class="cls-3" d="M316.32,79.73,70.52,221.66v283.8l245.8,141.91L562.05,505.46V221.66ZM549.68,498.34,316.32,633.07,82.92,498.34V228.84L316.32,94.07,549.68,228.84Z" transform="translate(-19.29 -20.56)"/><path d="M413.66,394.6c24.56,14.53,57.92,7.83,73.56-15.88C464.23,397.38,440.05,401.17,413.66,394.6Z" transform="translate(-19.29 -20.56)"/><path d="M352.09,391.76c.57-20.45,5.21-38.76,21.51-51C366.67,357.16,359.44,374.32,352.09,391.76Z" transform="translate(-19.29 -20.56)"/><path d="M281.58,390.9l-21.27-50.14C276.51,353,281.28,371.08,281.58,390.9Z" transform="translate(-19.29 -20.56)"/><path class="cls-4" d="M215.23,349.54c-3.07,10.28-9.21,14.28-16.58,12.66-5.8-1.27-11.06-5.84-16-9.71-1.09-.87.37-5,.66-7.56,2,1.3,4.63,2.17,5.85,4,3.89,5.84,8.32,8.32,14.9,4.67l-3.28-8.67Z" transform="translate(-19.29 -20.56)"/><path class="cls-4" d="M418.8,349.9c2.29-.94,4.35-1.86,6.46-2.65,2.45-.91,4.93-1.71,7.4-2.55l-2.84,8.83c5.86,3.8,10.66,2,14.77-4.49,1.17-1.82,3.72-2.76,5.64-4.11.48,2.61,2.21,6.75,1.21,7.57-5.09,4.17-10.62,9.84-16.5,10.5C427.62,363.83,419.88,360.2,418.8,349.9Z" transform="translate(-19.29 -20.56)"/><polyline points="488.48 302.4 482.21 314.88 470.68 314.88"/><path class="cls-5" d="M444.59,349c-4.11,6.46-8.91,8.29-14.77,4.49l2.84-8.83c-2.47.84-5,1.64-7.4,2.55-2.11.79-4.17,1.71-6.46,2.65,1.08,10.3,8.82,13.93,16.14,13.1,5.88-.66,11.41-6.33,16.5-10.5,1-.82-.73-5-1.21-7.57C448.31,346.28,445.76,347.22,444.59,349Z" transform="translate(-19.29 -20.56)"/><path d="M525.66,336.7c-7.09-7.28-4.73-11.74-2.88-13.66l-24,12.4-3.95-5,12.28-5.62L505,323,483,329.58c.84-2.85,1.3-4.43,1.74-5.91l-25.25,10.55c1-3.13,1.45-4.56,2.35-7.37-31,5.39-58.83,15-80.49,38.11l12.54-7.07-13.49,21.92,1.34.79,29.78-32.44c6.35,13.59,13.93,20.47,26.52,19,13.13-1.58,18.38-10.78,20.75-24.11l21.7,9.28C458,379,427.61,370.76,400.74,375.46c10.26,1.59,20.44,3,30.55,2.68,24.26-.8,46-9.89,66.62-22,2.41-1.41,5.49-1.72,8.29-2.43,2.23-.57,4.87-.37,6.68-1.53,6.54-4.15,12.83-8.72,19.16-13.2.58-.41.84-1.28,1.44-2.24H530.1C528.7,338.12,527.21,338.3,525.66,336.7Zm-74.22,15.8c-5.09,4.17-10.62,9.84-16.5,10.5-7.32.83-15.06-2.8-16.14-13.1,2.29-.94,4.35-1.86,6.46-2.65,2.45-.91,4.93-1.71,7.4-2.55l-2.84,8.83c5.86,3.8,10.66,2,14.77-4.49,1.17-1.82,3.72-2.76,5.64-4.11C450.71,347.54,452.44,351.68,451.44,352.5Z" transform="translate(-19.29 -20.56)"/><path class="cls-6" d="M531.39,282.48c-28.29-7.25-54.26,1.89-78.31,14.4-22.5,11.71-43,27.25-64.14,41.54-15.57,10.55-23.44,24.32-22.66,39,1.23-2.78,2-4.55,2.81-6.31,8-17.71,19-31.71,40.44-33.16a30.05,30.05,0,0,0,9.57-2.82c29.79-13,59.49-26.13,89.29-39.06,7.72-3.35,15.69-6.09,25.49-9.86h0l0,0v0h.86l1.57-2.31-.15-.06C534.64,283.26,533,282.9,531.39,282.48Z" transform="translate(-19.29 -20.56)"/><path d="M524.15,321.93h0a7.41,7.41,0,0,0-1.36,1.12l1.41-.72Z" transform="translate(-19.29 -20.56)"/><path d="M530.1,336.7h-4.44C527.21,338.3,528.7,338.12,530.1,336.7Z" transform="translate(-19.29 -20.56)"/><path d="M524.19,322.32l.24-.13-.28-.26Z" transform="translate(-19.29 -20.56)"/><path d="M525.66,336.7c-.54-5.27-1-9.84-1.47-14.38l-1.41.72C520.93,325,518.57,329.42,525.66,336.7Z" transform="translate(-19.29 -20.56)"/><path class="cls-7" d="M524.15,321.93l.28.26c0-.17.08-.34.13-.52l-.42.25Z" transform="translate(-19.29 -20.56)"/><path d="M524.15,321.93l.28.26-.28-.26Z" transform="translate(-19.29 -20.56)"/><path class="cls-5" d="M204.1,353.59c-6.58,3.65-11,1.17-14.9-4.67-1.22-1.82-3.86-2.69-5.85-4-.29,2.6-1.75,6.69-.66,7.56,4.9,3.87,10.16,8.44,16,9.71,7.37,1.62,13.51-2.38,16.58-12.66l-14.41-4.62Z" transform="translate(-19.29 -20.56)"/><path class="cls-8" d="M115.72,326.74c-6.9-11.28-10.81-24.41-16.66-39l-3.94-2.61c-4.79,2.42-4.79,5.69-1.37,14.06C96.88,306.89,100.4,314.4,104,322l11.9,5C115.85,326.91,115.77,326.83,115.72,326.74Z" transform="translate(-19.29 -20.56)"/><path d="M115.91,327,104,322l1.1,2.31c11.18,9.08,29.92,10.77,29.92,10.77C128.52,332.47,119.08,331.65,115.91,327Z" transform="translate(-19.29 -20.56)"/><path d="M171.9,328.92c.83,1.23,1.68,2.47,4.11,6l-27-11.35c.47,1.66.9,3.19,1.59,5.66l-23.17-6.19c3.83,4.17,6.38,6.95,8.94,9.72L135,335.07,111.11,337H100.7c13.13,1.59,18,18.65,32.81,17.37,2.32-.2,4.93,3.67,7.51,5.52a26.44,26.44,0,0,0,5.9,3.55c4.26,1.58,9,2.15,13,4.18,23.28,11.86,47.57,12.65,72.59,7.44-26.67-4-56.55,3.63-79.06-22.88l21.47-8.83c2,13.23,7.59,21.53,19.26,24,13.8,2.92,22-5.05,29.07-18.62L251.75,380l1.42-1.27-12.68-20.23,13.25,6.21C234.89,344.36,190.76,325.7,171.9,328.92Zm26.75,33.28c-5.8-1.27-11.06-5.84-16-9.71-1.09-.87.37-5,.66-7.56,2,1.3,4.63,2.17,5.85,4,3.89,5.84,8.32,8.32,14.9,4.67l-3.28-8.67,14.41,4.62C212.16,359.82,206,363.82,198.65,362.2Z" transform="translate(-19.29 -20.56)"/><path class="cls-6" d="M98.56,286.53c5.17,1.39,7.13,1.66,8.88,2.43,22.42,9.81,44.6,20.23,67.29,29.39,20.13,8.13,40.88,14.68,61.2,22.36,5.16,1.94,10.94,4.49,14.28,8.54,6.93,8.43,12.42,18.05,18.8,27.63-1.27-12.92-6.52-23.42-16-31.72a345.46,345.46,0,0,0-78-51.06c-22.29-10.76-46.51-18.78-72.5-11.52a42,42,0,0,0-7.42,2.59l3.94,2.61Z" transform="translate(-19.29 -20.56)"/><path d="M146.37,377.24c15.64,23.71,49,30.41,73.56,15.89C193.55,399.69,169.37,395.91,146.37,377.24Z" transform="translate(-19.29 -20.56)"/><path d="M105.1,324.29l6,12.7q-3-6.44-6-12.69Z" transform="translate(-19.29 -20.56)"/><path d="M105.11,324.3q3,6.27,6,12.69L135,335.07S116.29,333.38,105.11,324.3Z" transform="translate(-19.29 -20.56)"/><path class="cls-9" d="M161.94,409.7a62.6,62.6,0,0,0,87.29-15.25" transform="translate(-19.29 -20.56)"/><path class="cls-9" d="M469,409.7a62.62,62.62,0,0,1-87.3-15.25" transform="translate(-19.29 -20.56)"/><path d="M533.48,336.7" transform="translate(-19.29 -20.56)"/><polygon class="cls-10" points="505.31 305.79 506.37 316.15 514.19 316.15 505.31 305.79"/><path class="cls-8" d="M536.36,283.87l2.07,1.82s-.94,46.95-4.95,51h-7.82l-1.51-14.77,11.2-36.58Z" transform="translate(-19.29 -20.56)"/><polygon points="508.6 317.28 515.48 313.07 514.19 316.15 508.6 317.28"/><path d="M523.42,334.1" transform="translate(-19.29 -20.56)"/><polygon points="504.14 316.15 515.48 313.07 506.81 320.2 504.14 316.15"/><polygon points="499.43 314.88 514.19 298.99 505 320.17 499.43 314.88"/><path class="cls-11" d="M521.49,573.64l-22-6.4,7.62,13.2-2.83,1.63L492.62,562l22.16,6.47-7.6-13.16,2.78-1.6Z" transform="translate(-19.29 -20.56)"/><path class="cls-11" d="M385.07,630.33l-.86,2.95c-.81-.2-1.55-.44-2.31-.57a8,8,0,0,0-8.9,10.58,8.22,8.22,0,0,0,11.54,4.86c3.27-1.56,4.41-6.07,3-8.21L383,642.58l-1.54-2.67,3.85-2.23,3.79-2.19a10.07,10.07,0,0,1-2.58,15.11,11.29,11.29,0,0,1-13-.93,11.57,11.57,0,0,1-3.4-12.89A11.34,11.34,0,0,1,385.07,630.33Z" transform="translate(-19.29 -20.56)"/><path class="cls-11" d="M448.57,608.54a21.41,21.41,0,0,0,1.41,2.4,1.34,1.34,0,0,1-.11,1.88c-4.23,5.68-12,6.57-17,1.94a11.47,11.47,0,0,1,7.05-19.87,1.2,1.2,0,0,1,1.35.74c.4.8.88,1.55,1.45,2.54-3.28-.39-6.12.12-8.32,2.52a7.74,7.74,0,0,0-2,4.9,8.52,8.52,0,0,0,6,8.62C442.51,615.41,445.65,613.69,448.57,608.54Z" transform="translate(-19.29 -20.56)"/><path class="cls-11" d="M414.86,612l9.38,16.23-2.83,1.64-9.36-16.21-4.32,2.49-1.49-2.59,11.48-6.62,1.47,2.56Z" transform="translate(-19.29 -20.56)"/><path class="cls-11" d="M394.24,620.43l2.68-1.55,10.9,18.87-2.69,1.55Z" transform="translate(-19.29 -20.56)"/><path class="cls-11" d="M493,588.61l-2.67,1.55-10.9-18.88,2.67-1.54Z" transform="translate(-19.29 -20.56)"/><circle class="cls-12" cx="444.47" cy="567.52" r="11.45"/></svg>